<svg xmlns="http://www.w3.org/2000/svg" viewBox="0 0 512 512">
	<defs>
		<style>
			#user {
				stroke: white;
				stroke-width: 20;
				stroke-linejoin: round;
			}
			
			#message {
				stroke: black;
				stroke-width: 2;
				fill: white;
			}

			#message-text {
				display: none;
			}
		</style>
	</defs>

	<rect width="480" height="480" x="16" y="16" rx="128" ry="128" fill="hsl(220, 50%, 50%)" stroke="hsl(220, 50%, 45%)" stroke-width="16" />
	
	<g transform="translate(256, 256) scale(0.9) translate(-256, -256)">
		<g id="user">
			<g transform="translate(50, 50)">
				<path d="M391.113, 426.667H35.554v-88.892c0-22.746, 8.678-45.495, 26.039-62.848 c17.353-17.357, 40.102-26.039, 62.848-26.039h177.783c22.75, 0, 45.495, 8.678, 62.852, 26.039 c17.353, 17.353, 26.035, 40.102, 26.035, 62.848V426.667z"/>
				<circle cx="215" cy="135" r="110"/>
			</g>
		</g>

		<g id="message" transform="scale(0.6) translate(330, -80)">
			<path transform="translate(160, 100) scale(15)" d="M.054 23c.971-1.912 2.048-4.538 1.993-6.368-1.308-1.562-2.047-3.575-2.047-5.625 0-5.781 5.662-10.007 12-10.007 6.299 0 12 4.195 12 10.007 0 6.052-6.732 11.704-15.968 9.457-1.677 1.028-5.376 2.066-7.978 2.536z"/>
		</g>
	</g>
</svg>